<?xml version="1.0" standalone="no"?>
<!DOCTYPE svg PUBLIC "-//W3C//DTD SVG 20010904//EN"
 "http://www.w3.org/TR/2001/REC-SVG-20010904/DTD/svg10.dtd">
<svg version="1.0" xmlns="http://www.w3.org/2000/svg"
 width="666.000000pt" height="375.000000pt" viewBox="0 0 666.000000 375.000000"
 preserveAspectRatio="xMidYMid meet">

<g transform="translate(0.000000,375.000000) scale(0.100000,-0.100000)"
fill="#000000" stroke="none">
<path d="M2999 3231 l-24 -19 -3 -784 c-2 -430 0 -802 3 -825 3 -23 14 -52 23
-63 17 -21 23 -21 487 -25 259 -2 471 -4 472 -4 2 -1 -5 -14 -200 -351 -262
-453 -287 -500 -287 -524 0 -28 33 -56 67 -56 26 0 37 15 168 245 51 88 134
232 185 320 51 88 106 185 123 215 72 129 67 156 67 -342 0 -332 3 -447 12
-456 18 -18 73 -15 89 5 11 13 15 102 19 446 l5 430 53 -94 c30 -52 86 -150
126 -219 91 -157 261 -451 294 -508 14 -24 31 -46 38 -49 24 -9 63 6 80 32 19
29 24 18 -183 375 -253 437 -292 505 -298 522 -6 16 10 17 227 16 128 -1 342
-1 476 0 227 2 243 3 262 22 20 20 20 33 20 840 l0 821 -25 24 -24 25 -1114 0
c-1083 0 -1115 -1 -1138 -19z m2171 -731 l0 -630 -1035 0 -1035 0 0 630 0 630
1035 0 1035 0 0 -630z"/>
<path d="M3245 2978 c-3 -7 -4 -157 -3 -333 l3 -320 35 0 35 0 0 330 0 330
-33 3 c-20 2 -34 -2 -37 -10z"/>
<path d="M3405 2977 c-3 -7 -4 -156 -3 -332 l3 -320 35 0 35 0 3 310 c1 171 0
320 -3 333 -4 17 -13 22 -36 22 -16 0 -32 -6 -34 -13z"/>
<path d="M3565 2977 c-3 -7 -4 -156 -3 -332 l3 -320 35 0 35 0 3 310 c1 171 0
320 -3 333 -4 17 -13 22 -36 22 -16 0 -32 -6 -34 -13z"/>
<path d="M3725 2978 c-3 -7 -4 -157 -3 -333 l3 -320 33 -3 32 -3 -2 333 -3
333 -28 3 c-16 2 -29 -2 -32 -10z"/>
<path d="M3885 2978 c-3 -7 -4 -157 -3 -333 l3 -320 33 -3 32 -3 -2 333 -3
333 -28 3 c-16 2 -29 -2 -32 -10z"/>
<path d="M4074 2976 c-3 -8 -4 -23 -2 -33 3 -17 28 -18 488 -18 l485 0 0 30 0
30 -483 3 c-414 2 -483 0 -488 -12z"/>
<path d="M4082 2828 c-16 -16 -15 -43 2 -57 9 -8 146 -10 487 -9 l474 3 3 29
c2 16 -2 32 -10 37 -22 14 -942 11 -956 -3z"/>
<path d="M4077 2673 c-14 -13 -6 -53 12 -63 24 -12 929 -14 949 -1 8 5 12 21
10 37 l-3 29 -481 3 c-264 1 -484 -1 -487 -5z"/>
<path d="M4082 2518 c-16 -16 -15 -43 2 -57 9 -8 146 -10 487 -9 l474 3 3 29
c2 16 -2 32 -10 37 -22 14 -942 11 -956 -3z"/>
<path d="M4082 2368 c-15 -15 -15 -41 0 -56 14 -14 934 -17 956 -3 8 5 12 21
10 37 l-3 29 -475 3 c-362 2 -479 -1 -488 -10z"/>
<path d="M3215 2212 c-3 -11 -3 -27 1 -36 6 -15 40 -16 383 -14 l376 3 0 30 0
30 -377 3 c-360 2 -377 1 -383 -16z"/>
<path d="M4087 2223 c-11 -11 -8 -48 5 -61 9 -9 129 -12 479 -12 503 0 495 -1
487 52 l-3 23 -481 3 c-264 1 -484 -1 -487 -5z"/>
<path d="M3215 2062 c-3 -11 -3 -27 1 -36 6 -15 40 -16 383 -14 l376 3 0 30 0
30 -377 3 c-360 2 -377 1 -383 -16z"/>
<path d="M4074 2066 c-3 -8 -4 -23 -2 -33 3 -17 28 -18 488 -18 l485 0 0 30 0
30 -483 3 c-414 2 -483 0 -488 -12z"/>
<path d="M1915 3181 c-65 -37 -85 -78 -85 -171 0 -38 -5 -72 -11 -76 -15 -9
-2 -54 25 -84 13 -14 29 -47 36 -74 38 -140 176 -189 274 -98 31 29 65 95 66
126 0 10 14 34 30 53 28 31 41 83 21 83 -5 0 -11 36 -12 79 -5 90 -25 129 -75
145 -16 5 -47 18 -70 28 -62 28 -138 24 -199 -11z"/>
<path d="M2708 2595 c-18 -10 -48 -57 -98 -150 -39 -75 -75 -133 -80 -130 -5
3 -25 32 -44 63 -26 43 -48 65 -83 84 -53 29 -181 71 -192 63 -5 -2 -11 -38
-14 -79 -10 -114 -83 -325 -139 -399 -12 -16 -16 -13 -47 38 -64 105 -98 208
-137 413 -6 29 -26 28 -114 -4 -114 -41 -131 -55 -201 -165 -35 -55 -85 -133
-111 -172 -73 -109 -91 -153 -80 -185 5 -15 66 -117 134 -227 100 -160 132
-204 162 -220 l36 -20 0 -548 c0 -590 0 -585 52 -621 53 -37 148 -12 180 47 6
13 23 197 39 440 18 272 32 423 39 433 15 17 34 18 48 1 11 -13 36 -245 70
-660 l19 -218 31 -31 c25 -25 39 -31 74 -31 45 0 90 22 105 51 4 9 10 422 13
917 l5 900 37 -61 c50 -81 71 -99 119 -99 51 0 72 22 147 155 33 58 85 150
116 205 31 55 56 110 56 123 0 38 -27 79 -61 91 -40 14 -48 13 -81 -4z m-1008
-605 c0 -99 -2 -180 -4 -180 -2 0 -25 32 -51 71 -67 102 -68 122 -9 214 27 41
52 75 57 75 4 0 7 -81 7 -180z"/>
<path d="M2000 2563 c1 -18 29 -43 48 -43 18 0 42 25 42 44 0 3 -20 6 -45 6
-25 0 -45 -3 -45 -7z"/>
<path d="M2026 2488 c-2 -7 -11 -47 -20 -90 l-17 -76 27 -76 c15 -42 30 -74
33 -70 3 3 18 38 32 77 24 66 25 75 14 121 -7 28 -16 68 -19 89 -5 28 -12 37
-27 37 -11 0 -21 -6 -23 -12z"/>
</g>
</svg>
