<?xml version="1.0" standalone="no"?>
<!DOCTYPE svg PUBLIC "-//W3C//DTD SVG 20010904//EN"
 "http://www.w3.org/TR/2001/REC-SVG-20010904/DTD/svg10.dtd">
<svg version="1.0" xmlns="http://www.w3.org/2000/svg"
 width="16.000000pt" height="16.000000pt" viewBox="0 0 16.000000 16.000000"
 preserveAspectRatio="xMidYMid meet">

<g transform="translate(0.000000,16.000000) scale(0.100000,-0.100000)"
fill="#000000" stroke="none">
<path d="M20 142 c0 -5 14 -18 30 -30 l30 -23 30 23 c17 12 30 25 30 30 0 4
-27 8 -60 8 -33 0 -60 -4 -60 -8z"/>
<path d="M0 90 l0 -40 80 0 80 0 0 40 c0 22 -3 40 -6 40 -3 0 -21 -12 -39 -26
l-34 -26 -34 26 c-19 14 -37 26 -40 26 -4 0 -7 -18 -7 -40z"/>
</g>
</svg>
