<?xml version="1.0" standalone="no"?>
<!DOCTYPE svg PUBLIC "-//W3C//DTD SVG 20010904//EN"
 "http://www.w3.org/TR/2001/REC-SVG-20010904/DTD/svg10.dtd">
<svg version="1.0" xmlns="http://www.w3.org/2000/svg"
 width="500.000000pt" height="500.000000pt" viewBox="0 0 500.000000 500.000000"
 preserveAspectRatio="xMidYMid meet">

<g transform="translate(0.000000,500.000000) scale(0.100000,-0.100000)"
fill="#000000" stroke="none">
<path d="M2348 4953 c18 -2 45 -2 60 0 15 2 0 4 -33 4 -33 0 -45 -2 -27 -4z"/>
<path d="M2480 4850 l0 -110 -89 0 c-183 0 -442 -48 -649 -120 -65 -22 -121
-41 -126 -43 -4 -1 -26 41 -48 93 -22 52 -41 97 -43 98 -5 6 -243 -115 -335
-171 -147 -88 -304 -211 -437 -344 -71 -70 -109 -109 -84 -86 l46 43 72 -72
72 -71 -81 -93 c-148 -169 -284 -381 -362 -559 -18 -41 -35 -78 -39 -81 -3 -4
-47 10 -97 30 -49 20 -94 36 -99 36 -10 0 -83 -214 -110 -325 -45 -179 -62
-323 -66 -540 -2 -115 0 -185 3 -155 l7 55 102 3 103 3 0 -70 c0 -180 60 -478
139 -685 22 -60 40 -110 38 -112 -8 -8 -165 -76 -178 -77 -14 -1 -13 -7 5 -47
145 -303 307 -532 527 -745 52 -49 80 -74 62 -55 l-31 35 68 74 68 74 99 -82
c172 -145 391 -279 590 -363 l62 -26 -38 -101 -39 -100 92 -30 c204 -67 379
-103 586 -121 112 -10 380 -12 330 -3 -14 3 -28 10 -32 17 -4 6 -8 53 -8 104
l0 92 53 0 c180 0 478 66 699 154 l107 43 36 -75 c19 -41 38 -85 41 -98 6 -24
7 -23 117 33 129 66 320 190 427 277 68 55 318 295 278 266 -15 -10 -27 -2
-91 58 l-74 70 69 84 c135 162 269 382 343 563 20 50 40 94 44 98 8 8 182 -50
192 -65 13 -20 95 275 124 444 28 173 46 477 30 520 -4 10 -29 12 -109 10
l-103 -4 -7 84 c-18 210 -79 463 -157 646 -22 53 -43 104 -45 113 -4 12 18 26
90 59 l95 43 -35 70 c-114 225 -289 462 -474 642 l-83 80 -72 -79 -72 -79 -84
68 c-164 134 -380 260 -581 340 l-96 38 34 100 c19 55 33 101 31 102 -8 8
-230 67 -312 85 -112 24 -337 50 -432 50 l-63 0 0 -110z m265 -496 c697 -95
1294 -588 1525 -1259 70 -204 91 -329 97 -566 4 -162 2 -229 -12 -315 -94
-609 -446 -1111 -985 -1404 -273 -148 -567 -221 -889 -221 -314 0 -572 61
-846 198 -558 281 -935 802 -1031 1427 -25 166 -15 478 20 642 44 208 112 388
215 566 319 553 898 913 1526 947 142 8 244 4 380 -15z"/>
<path d="M2340 3801 l0 -59 -48 -11 c-336 -72 -570 -385 -549 -733 20 -322
246 -581 570 -652 l27 -6 0 -400 c0 -220 -3 -400 -8 -400 -4 0 -30 15 -58 34
-82 56 -145 149 -169 251 l-12 50 -74 -1 c-41 -1 -105 -4 -143 -9 l-69 -7 6
-51 c24 -235 227 -479 464 -558 l63 -21 0 -64 0 -64 140 0 140 0 0 58 0 58 58
12 c31 7 99 33 151 58 165 81 297 236 358 419 23 69 27 98 27 205 1 105 -3
137 -22 200 -81 257 -259 429 -513 494 l-54 13 -3 402 c-1 220 1 401 5 401 15
0 66 -39 115 -86 69 -67 105 -143 123 -256 l6 -38 145 0 145 0 -6 58 c-33 293
-207 517 -475 611 l-55 19 -3 66 -3 66 -139 0 -140 0 0 -59z m0 -762 l0 -400
-22 6 c-45 14 -118 59 -154 94 -94 94 -129 177 -129 312 0 91 2 99 38 171 44
86 99 144 177 187 98 54 90 87 90 -370z m373 -757 c60 -32 137 -113 171 -180
112 -221 1 -491 -239 -582 l-25 -10 0 406 0 405 23 -6 c12 -4 43 -19 70 -33z"/>
<path d="M2223 4943 c9 -2 23 -2 30 0 6 3 -1 5 -18 5 -16 0 -22 -2 -12 -5z"/>
<path d="M2133 4933 c9 -2 23 -2 30 0 6 3 -1 5 -18 5 -16 0 -22 -2 -12 -5z"/>
<path d="M2068 4923 c7 -3 16 -2 19 1 4 3 -2 6 -13 5 -11 0 -14 -3 -6 -6z"/>
<path d="M2018 4913 c7 -3 16 -2 19 1 4 3 -2 6 -13 5 -11 0 -14 -3 -6 -6z"/>
<path d="M1918 4893 c7 -3 16 -2 19 1 4 3 -2 6 -13 5 -11 0 -14 -3 -6 -6z"/>
<path d="M1838 4873 c7 -3 16 -2 19 1 4 3 -2 6 -13 5 -11 0 -14 -3 -6 -6z"/>
<path d="M3960 4466 c0 -2 8 -10 18 -17 15 -13 16 -12 3 4 -13 16 -21 21 -21
13z"/>
<path d="M4010 4426 c0 -2 8 -10 18 -17 15 -13 16 -12 3 4 -13 16 -21 21 -21
13z"/>
<path d="M4070 4375 c13 -14 26 -25 28 -25 3 0 -5 11 -18 25 -13 14 -26 25
-28 25 -3 0 5 -11 18 -25z"/>
<path d="M584 4078 l-29 -33 33 29 c30 28 37 36 29 36 -2 0 -16 -15 -33 -32z"/>
<path d="M534 4018 l-19 -23 23 19 c21 18 27 26 19 26 -2 0 -12 -10 -23 -22z"/>
<path d="M499 3973 c-29 -35 -41 -53 -36 -53 2 0 17 16 31 35 28 36 31 49 5
18z"/>
<path d="M422 3868 c-36 -54 -44 -68 -39 -68 2 0 21 25 41 55 20 30 34 55 32
55 -3 0 -18 -19 -34 -42z"/>
<path d="M358 3768 c-22 -34 -42 -74 -31 -63 14 15 55 85 50 85 -3 0 -11 -10
-19 -22z"/>
<path d="M264 3599 c-19 -39 -34 -73 -32 -75 2 -2 21 30 41 71 20 41 35 75 32
75 -3 0 -21 -32 -41 -71z"/>
<path d="M196 3455 c-9 -26 -7 -32 5 -12 6 10 9 21 6 23 -2 3 -7 -2 -11 -11z"/>
<path d="M12 2230 c0 -14 2 -19 5 -12 2 6 2 18 0 25 -3 6 -5 1 -5 -13z"/>
<path d="M21 2144 c0 -11 3 -14 6 -6 3 7 2 16 -1 19 -3 4 -6 -2 -5 -13z"/>
<path d="M4449 983 c-13 -16 -12 -17 4 -4 9 7 17 15 17 17 0 8 -8 3 -21 -13z"/>
<path d="M4409 933 c-13 -16 -12 -17 4 -4 16 13 21 21 13 21 -2 0 -10 -8 -17
-17z"/>
<path d="M4364 878 l-19 -23 23 19 c21 18 27 26 19 26 -2 0 -12 -10 -23 -22z"/>
<path d="M880 585 c13 -14 26 -25 28 -25 3 0 -5 11 -18 25 -13 14 -26 25 -28
25 -3 0 5 -11 18 -25z"/>
<path d="M930 546 c0 -2 8 -10 18 -17 15 -13 16 -12 3 4 -13 16 -21 21 -21 13z"/>
<path d="M970 516 c0 -2 8 -10 18 -17 15 -13 16 -12 3 4 -13 16 -21 21 -21 13z"/>
<path d="M1010 486 c0 -2 8 -10 18 -17 15 -13 16 -12 3 4 -13 16 -21 21 -21
13z"/>
<path d="M2878 33 c7 -3 16 -2 19 1 4 3 -2 6 -13 5 -11 0 -14 -3 -6 -6z"/>
<path d="M2808 23 c7 -3 16 -2 19 1 4 3 -2 6 -13 5 -11 0 -14 -3 -6 -6z"/>
<path d="M2718 13 c7 -3 16 -2 19 1 4 3 -2 6 -13 5 -11 0 -14 -3 -6 -6z"/>
</g>
</svg>
